<svg xmlns="http://www.w3.org/2000/svg" xmlns:xlink="http://www.w3.org/1999/xlink" width="250" zoomAndPan="magnify" viewBox="0 0 187.5 187.499992" height="250" preserveAspectRatio="xMidYMid meet" version="1.0"><defs><g/><clipPath id="03c63e2ad0"><path d="M 0 84.554688 L 187 84.554688 L 187 102.445312 L 0 102.445312 Z M 0 84.554688 " clip-rule="nonzero"/></clipPath></defs><g fill="#393834" fill-opacity="1"><g transform="translate(33.428086, 120.658296)"><g><path d="M 36.75 -51.953125 C 34.300781 -51.953125 33.078125 -49.847656 33.078125 -45.640625 L 33.078125 -16.15625 C 33.078125 -8.125 29.929688 -2.910156 23.640625 -0.515625 C 21.492188 0.296875 19.0625 0.703125 16.34375 0.703125 C 13.625 0.703125 11.304688 0.410156 9.390625 -0.171875 C 7.484375 -0.765625 5.867188 -1.550781 4.546875 -2.53125 C 1.878906 -4.539062 0.546875 -6.976562 0.546875 -9.84375 C 0.546875 -12 1.046875 -13.707031 2.046875 -14.96875 C 3.054688 -16.226562 4.441406 -16.859375 6.203125 -16.859375 C 7.671875 -16.859375 8.648438 -16.515625 9.140625 -15.828125 C 8.847656 -14.648438 8.703125 -13.507812 8.703125 -12.40625 C 8.703125 -7.394531 11.296875 -4.890625 16.484375 -4.890625 C 19.035156 -4.890625 20.992188 -5.628906 22.359375 -7.109375 C 23.734375 -8.585938 24.421875 -10.6875 24.421875 -13.40625 L 24.421875 -47.65625 C 24.367188 -48.957031 24.125 -49.816406 23.6875 -50.234375 C 23 -50.847656 22.1875 -51.242188 21.25 -51.421875 C 20.320312 -51.609375 19.546875 -51.773438 18.921875 -51.921875 C 18.304688 -52.066406 17.773438 -52.25 17.328125 -52.46875 C 16.492188 -52.914062 16.078125 -53.613281 16.078125 -54.5625 C 16.078125 -55.46875 16.273438 -56.144531 16.671875 -56.59375 C 17.234375 -56.394531 18.445312 -56.296875 20.3125 -56.296875 L 36.203125 -56.296875 C 38.992188 -56.296875 40.390625 -55.351562 40.390625 -53.46875 C 40.390625 -52.65625 40.195312 -52.03125 39.8125 -51.59375 C 38.925781 -51.832031 37.90625 -51.953125 36.75 -51.953125 Z M 36.75 -51.953125 "/></g></g></g><g fill="#393834" fill-opacity="1"><g transform="translate(75.246329, 120.658296)"><g><path d="M 7.15625 0 C 3.875 0 2.234375 -0.90625 2.234375 -2.71875 C 2.234375 -3.519531 2.429688 -4.164062 2.828125 -4.65625 C 3.535156 -4.46875 4.253906 -4.375 4.984375 -4.375 C 5.722656 -4.375 6.347656 -4.394531 6.859375 -4.4375 C 7.378906 -4.488281 7.859375 -4.695312 8.296875 -5.0625 C 9.203125 -5.894531 9.765625 -7.742188 9.984375 -10.609375 L 13.765625 -49.609375 C 13.816406 -50.222656 13.609375 -50.703125 13.140625 -51.046875 C 12.679688 -51.390625 12.109375 -51.632812 11.421875 -51.78125 C 10.734375 -51.925781 10.140625 -52.046875 9.640625 -52.140625 C 9.140625 -52.242188 8.703125 -52.390625 8.328125 -52.578125 C 7.578125 -52.953125 7.203125 -53.582031 7.203125 -54.46875 C 7.203125 -55.363281 7.375 -56.03125 7.71875 -56.46875 C 8.175781 -56.351562 8.585938 -56.296875 8.953125 -56.296875 L 19.828125 -56.296875 C 23.472656 -56.296875 25.710938 -55.398438 26.546875 -53.609375 L 40.203125 -21.5625 L 54.3125 -53.796875 C 54.769531 -54.867188 55.460938 -55.550781 56.390625 -55.84375 C 57.328125 -56.144531 58.519531 -56.296875 59.96875 -56.296875 L 67.09375 -56.296875 C 70.394531 -56.296875 72.046875 -55.425781 72.046875 -53.6875 C 72.046875 -52.757812 71.863281 -52.085938 71.5 -51.671875 C 70.519531 -51.929688 69.71875 -52.0625 69.09375 -52.0625 C 68.46875 -52.0625 67.910156 -52.015625 67.421875 -51.921875 C 66.929688 -51.828125 66.539062 -51.644531 66.25 -51.375 C 65.632812 -50.851562 65.398438 -49.820312 65.546875 -48.28125 L 69.515625 -8.109375 C 69.679688 -6.398438 70.597656 -5.328125 72.265625 -4.890625 C 72.734375 -4.765625 73.222656 -4.613281 73.734375 -4.4375 L 75.171875 -3.96875 C 76.078125 -3.675781 76.625 -3.289062 76.8125 -2.8125 C 77.007812 -2.332031 77.109375 -1.875 77.109375 -1.4375 C 77.109375 -0.820312 76.925781 -0.28125 76.5625 0.1875 C 76 0.0625 75.421875 0 74.828125 0 L 58.09375 0 C 55.101562 0 53.609375 -0.894531 53.609375 -2.6875 C 53.609375 -2.976562 53.691406 -3.347656 53.859375 -3.796875 C 54.035156 -4.253906 54.171875 -4.539062 54.265625 -4.65625 C 55.003906 -4.46875 55.6875 -4.375 56.3125 -4.375 C 56.9375 -4.375 57.582031 -4.421875 58.25 -4.515625 C 58.925781 -4.609375 59.5 -4.84375 59.96875 -5.21875 C 60.96875 -6.050781 61.394531 -7.628906 61.25 -9.953125 L 58.859375 -41.453125 L 58.53125 -47.59375 L 41.640625 -10.171875 C 41.316406 -9.972656 40.828125 -9.875 40.171875 -9.875 C 39.515625 -9.875 38.835938 -10.113281 38.140625 -10.59375 C 37.441406 -11.070312 36.8125 -11.664062 36.25 -12.375 C 35.34375 -13.519531 34.472656 -14.988281 33.640625 -16.78125 L 19.96875 -48.796875 L 17 -8.8125 C 16.90625 -7.414062 17.101562 -6.472656 17.59375 -5.984375 C 18.195312 -5.367188 19 -4.925781 20 -4.65625 C 21.007812 -4.394531 21.796875 -4.195312 22.359375 -4.0625 C 22.921875 -3.925781 23.410156 -3.75 23.828125 -3.53125 C 24.734375 -3.082031 25.1875 -2.347656 25.1875 -1.328125 C 25.1875 -0.804688 24.992188 -0.300781 24.609375 0.1875 C 24.160156 0.0625 23.742188 0 23.359375 0 Z M 7.15625 0 "/></g></g></g><g clip-path="url(#03c63e2ad0)"><path fill="#faf9f8" d="M 0 84.554688 L 187.023438 84.554688 L 187.023438 102.445312 L 0 102.445312 Z M 0 84.554688 " fill-opacity="1" fill-rule="nonzero"/></g><g fill="#393834" fill-opacity="1"><g transform="translate(34.539972, 97.053682)"><g><path d="M 5.203125 -7.359375 C 4.859375 -7.359375 4.6875 -7.0625 4.6875 -6.46875 L 4.6875 -2.296875 C 4.6875 -1.148438 4.238281 -0.410156 3.34375 -0.078125 C 3.039062 0.0351562 2.695312 0.09375 2.3125 0.09375 C 1.925781 0.09375 1.597656 0.0507812 1.328125 -0.03125 C 1.054688 -0.113281 0.828125 -0.222656 0.640625 -0.359375 C 0.265625 -0.640625 0.078125 -0.984375 0.078125 -1.390625 C 0.078125 -1.703125 0.144531 -1.945312 0.28125 -2.125 C 0.425781 -2.300781 0.625 -2.390625 0.875 -2.390625 C 1.082031 -2.390625 1.222656 -2.34375 1.296875 -2.25 C 1.253906 -2.082031 1.234375 -1.921875 1.234375 -1.765625 C 1.234375 -1.046875 1.601562 -0.6875 2.34375 -0.6875 C 2.695312 -0.6875 2.96875 -0.789062 3.15625 -1 C 3.351562 -1.21875 3.453125 -1.519531 3.453125 -1.90625 L 3.453125 -6.75 C 3.453125 -6.9375 3.421875 -7.0625 3.359375 -7.125 C 3.253906 -7.207031 3.132812 -7.257812 3 -7.28125 C 2.875 -7.3125 2.765625 -7.335938 2.671875 -7.359375 C 2.585938 -7.378906 2.515625 -7.40625 2.453125 -7.4375 C 2.335938 -7.5 2.28125 -7.597656 2.28125 -7.734375 C 2.28125 -7.859375 2.304688 -7.953125 2.359375 -8.015625 C 2.441406 -7.992188 2.613281 -7.984375 2.875 -7.984375 L 5.125 -7.984375 C 5.519531 -7.984375 5.71875 -7.847656 5.71875 -7.578125 C 5.71875 -7.460938 5.691406 -7.375 5.640625 -7.3125 C 5.515625 -7.34375 5.367188 -7.359375 5.203125 -7.359375 Z M 5.203125 -7.359375 "/></g></g></g><g fill="#393834" fill-opacity="1"><g transform="translate(41.534686, 97.053682)"><g><path d="M 5.515625 -0.609375 C 5.660156 -0.585938 5.769531 -0.578125 5.84375 -0.578125 C 5.914062 -0.578125 5.988281 -0.582031 6.0625 -0.59375 C 6.132812 -0.613281 6.195312 -0.640625 6.25 -0.671875 C 6.375 -0.753906 6.4375 -0.875 6.4375 -1.03125 C 6.4375 -1.164062 6.394531 -1.316406 6.3125 -1.484375 L 5.828125 -2.703125 L 2.53125 -2.703125 L 1.953125 -1.21875 C 1.890625 -1.082031 1.859375 -0.984375 1.859375 -0.921875 C 1.859375 -0.867188 1.867188 -0.828125 1.890625 -0.796875 C 1.910156 -0.765625 1.941406 -0.738281 1.984375 -0.71875 C 2.023438 -0.695312 2.070312 -0.679688 2.125 -0.671875 L 2.34375 -0.609375 C 2.570312 -0.566406 2.71875 -0.53125 2.78125 -0.5 C 2.914062 -0.4375 2.984375 -0.34375 2.984375 -0.21875 C 2.984375 -0.125 2.957031 -0.0390625 2.90625 0.03125 C 2.84375 0.0078125 2.78125 0 2.71875 0 L 0.609375 0 C 0.148438 0 -0.078125 -0.125 -0.078125 -0.375 C -0.078125 -0.5 -0.0507812 -0.597656 0 -0.671875 C 0.125 -0.628906 0.226562 -0.609375 0.3125 -0.609375 C 0.40625 -0.609375 0.484375 -0.625 0.546875 -0.65625 C 0.609375 -0.6875 0.664062 -0.734375 0.71875 -0.796875 C 0.8125 -0.910156 0.921875 -1.140625 1.046875 -1.484375 L 3.609375 -7.703125 C 3.679688 -7.867188 3.890625 -7.984375 4.234375 -8.046875 C 4.328125 -8.066406 4.425781 -8.078125 4.53125 -8.078125 C 4.738281 -8.078125 4.867188 -8.019531 4.921875 -7.90625 L 5.4375 -6.609375 C 6.445312 -4.234375 7.03125 -2.851562 7.1875 -2.46875 L 7.65625 -1.234375 C 7.75 -0.960938 7.828125 -0.796875 7.890625 -0.734375 C 7.953125 -0.671875 8.015625 -0.628906 8.078125 -0.609375 C 8.148438 -0.585938 8.222656 -0.566406 8.296875 -0.546875 C 8.378906 -0.535156 8.453125 -0.515625 8.515625 -0.484375 C 8.648438 -0.429688 8.71875 -0.34375 8.71875 -0.21875 C 8.71875 -0.125 8.691406 -0.046875 8.640625 0.015625 C 8.566406 0.00390625 8.503906 0 8.453125 0 L 5.984375 0 C 5.804688 0 5.664062 -0.0195312 5.5625 -0.0625 C 5.46875 -0.113281 5.421875 -0.179688 5.421875 -0.265625 C 5.421875 -0.421875 5.453125 -0.535156 5.515625 -0.609375 Z M 5.515625 -3.4375 L 4.15625 -6.8125 L 2.8125 -3.4375 Z M 5.515625 -3.4375 "/></g></g></g><g fill="#393834" fill-opacity="1"><g transform="translate(51.230601, 97.053682)"><g><path d="M 7.0625 -1.625 C 7.0625 -0.84375 6.957031 -0.300781 6.75 0 L 1.078125 0 C 0.804688 0 0.617188 -0.0664062 0.515625 -0.203125 C 0.472656 -0.253906 0.453125 -0.3125 0.453125 -0.375 C 0.453125 -0.5 0.484375 -0.597656 0.546875 -0.671875 C 0.660156 -0.640625 0.8125 -0.625 1 -0.625 C 1.425781 -0.625 1.640625 -0.882812 1.640625 -1.40625 L 1.640625 -6.75 C 1.640625 -6.988281 1.539062 -7.148438 1.34375 -7.234375 C 1.28125 -7.265625 1.207031 -7.289062 1.125 -7.3125 L 0.859375 -7.375 C 0.691406 -7.414062 0.585938 -7.46875 0.546875 -7.53125 C 0.515625 -7.59375 0.5 -7.65625 0.5 -7.71875 C 0.5 -7.851562 0.523438 -7.953125 0.578125 -8.015625 C 0.660156 -7.992188 0.832031 -7.984375 1.09375 -7.984375 L 3.359375 -7.984375 C 3.535156 -7.984375 3.675781 -7.953125 3.78125 -7.890625 C 3.894531 -7.835938 3.953125 -7.734375 3.953125 -7.578125 C 3.953125 -7.460938 3.925781 -7.375 3.875 -7.3125 C 3.738281 -7.34375 3.609375 -7.359375 3.484375 -7.359375 C 3.367188 -7.359375 3.273438 -7.34375 3.203125 -7.3125 C 3.140625 -7.289062 3.082031 -7.25 3.03125 -7.1875 C 2.925781 -7.0625 2.875 -6.847656 2.875 -6.546875 L 2.875 -1.28125 C 2.875 -1.039062 2.941406 -0.878906 3.078125 -0.796875 C 3.191406 -0.722656 3.40625 -0.6875 3.71875 -0.6875 L 4.546875 -0.6875 C 5.304688 -0.6875 5.800781 -0.859375 6.03125 -1.203125 C 6.144531 -1.367188 6.222656 -1.578125 6.265625 -1.828125 C 6.304688 -2.078125 6.34375 -2.367188 6.375 -2.703125 C 6.425781 -2.734375 6.5 -2.75 6.59375 -2.75 C 6.769531 -2.75 6.890625 -2.726562 6.953125 -2.6875 C 7.023438 -2.40625 7.0625 -2.050781 7.0625 -1.625 Z M 7.0625 -1.625 "/></g></g></g><g fill="#393834" fill-opacity="1"><g transform="translate(59.760679, 97.053682)"><g><path d="M 3.8125 0.046875 C 3.726562 0.015625 3.554688 0 3.296875 0 L 1.125 0 C 0.945312 0 0.800781 -0.0234375 0.6875 -0.078125 C 0.582031 -0.140625 0.53125 -0.25 0.53125 -0.40625 C 0.53125 -0.507812 0.554688 -0.597656 0.609375 -0.671875 C 0.753906 -0.628906 0.882812 -0.609375 1 -0.609375 C 1.113281 -0.609375 1.203125 -0.617188 1.265625 -0.640625 C 1.335938 -0.671875 1.398438 -0.71875 1.453125 -0.78125 C 1.554688 -0.914062 1.613281 -1.132812 1.625 -1.4375 L 1.625 -6.75 C 1.625 -7.019531 1.546875 -7.191406 1.390625 -7.265625 C 1.335938 -7.285156 1.269531 -7.304688 1.1875 -7.328125 C 1.101562 -7.347656 1.019531 -7.363281 0.9375 -7.375 C 0.863281 -7.394531 0.796875 -7.421875 0.734375 -7.453125 C 0.628906 -7.503906 0.578125 -7.597656 0.578125 -7.734375 C 0.578125 -7.859375 0.601562 -7.953125 0.65625 -8.015625 C 0.726562 -7.992188 0.898438 -7.984375 1.171875 -7.984375 L 3.28125 -7.984375 C 3.457031 -7.984375 3.597656 -7.953125 3.703125 -7.890625 C 3.816406 -7.835938 3.875 -7.734375 3.875 -7.578125 C 3.875 -7.460938 3.847656 -7.375 3.796875 -7.3125 C 3.660156 -7.34375 3.515625 -7.359375 3.359375 -7.359375 C 3.023438 -7.359375 2.851562 -7.085938 2.84375 -6.546875 L 2.84375 -1.234375 C 2.84375 -0.953125 2.921875 -0.773438 3.078125 -0.703125 C 3.117188 -0.679688 3.179688 -0.660156 3.265625 -0.640625 C 3.347656 -0.628906 3.429688 -0.613281 3.515625 -0.59375 C 3.597656 -0.570312 3.664062 -0.550781 3.71875 -0.53125 C 3.832031 -0.46875 3.890625 -0.375 3.890625 -0.25 C 3.890625 -0.125 3.863281 -0.0234375 3.8125 0.046875 Z M 3.8125 0.046875 "/></g></g></g><g fill="#393834" fill-opacity="1"><g transform="translate(65.292891, 97.053682)"><g><path d="M 5.046875 -5.78125 C 5.046875 -6.570312 4.765625 -7.070312 4.203125 -7.28125 C 4.003906 -7.34375 3.773438 -7.375 3.515625 -7.375 C 3.253906 -7.375 3.03125 -7.34375 2.84375 -7.28125 C 2.664062 -7.226562 2.515625 -7.148438 2.390625 -7.046875 C 2.128906 -6.847656 2 -6.578125 2 -6.234375 C 2 -5.722656 2.375 -5.289062 3.125 -4.9375 L 3.78125 -4.625 C 4.09375 -4.476562 4.394531 -4.328125 4.6875 -4.171875 C 4.976562 -4.023438 5.238281 -3.851562 5.46875 -3.65625 C 5.96875 -3.238281 6.21875 -2.71875 6.21875 -2.09375 C 6.21875 -1.425781 5.925781 -0.882812 5.34375 -0.46875 C 4.789062 -0.09375 4.101562 0.09375 3.28125 0.09375 C 2.632812 0.09375 2.0625 -0.00390625 1.5625 -0.203125 C 1.195312 -0.347656 0.9375 -0.554688 0.78125 -0.828125 C 0.695312 -0.960938 0.65625 -1.128906 0.65625 -1.328125 C 0.65625 -1.710938 0.753906 -2.070312 0.953125 -2.40625 C 1.015625 -2.488281 1.101562 -2.53125 1.21875 -2.53125 C 1.4375 -2.53125 1.566406 -2.460938 1.609375 -2.328125 C 1.648438 -1.734375 1.832031 -1.296875 2.15625 -1.015625 C 2.476562 -0.742188 2.929688 -0.609375 3.515625 -0.609375 C 4.179688 -0.609375 4.628906 -0.828125 4.859375 -1.265625 C 4.941406 -1.421875 4.984375 -1.597656 4.984375 -1.796875 C 4.984375 -2.003906 4.925781 -2.191406 4.8125 -2.359375 C 4.707031 -2.523438 4.5625 -2.675781 4.375 -2.8125 C 4.09375 -3.019531 3.71875 -3.21875 3.25 -3.40625 C 2.789062 -3.601562 2.429688 -3.773438 2.171875 -3.921875 C 1.921875 -4.066406 1.695312 -4.238281 1.5 -4.4375 C 1.0625 -4.851562 0.84375 -5.375 0.84375 -6 C 0.84375 -6.632812 1.117188 -7.144531 1.671875 -7.53125 C 2.191406 -7.894531 2.863281 -8.078125 3.6875 -8.078125 C 4.738281 -8.078125 5.425781 -7.859375 5.75 -7.421875 C 5.875 -7.265625 5.9375 -7.0625 5.9375 -6.8125 C 5.9375 -6.5625 5.910156 -6.34375 5.859375 -6.15625 C 5.816406 -5.96875 5.769531 -5.84375 5.71875 -5.78125 C 5.644531 -5.6875 5.515625 -5.640625 5.328125 -5.640625 C 5.140625 -5.640625 5.046875 -5.6875 5.046875 -5.78125 Z M 5.046875 -5.78125 "/></g></g></g><g fill="#393834" fill-opacity="1"><g transform="translate(73.240051, 97.053682)"><g><path d="M 3.8125 0.046875 C 3.726562 0.015625 3.554688 0 3.296875 0 L 1.125 0 C 0.945312 0 0.800781 -0.0234375 0.6875 -0.078125 C 0.582031 -0.140625 0.53125 -0.25 0.53125 -0.40625 C 0.53125 -0.507812 0.554688 -0.597656 0.609375 -0.671875 C 0.742188 -0.628906 0.867188 -0.609375 0.984375 -0.609375 C 1.109375 -0.609375 1.203125 -0.617188 1.265625 -0.640625 C 1.335938 -0.671875 1.398438 -0.722656 1.453125 -0.796875 C 1.554688 -0.929688 1.609375 -1.160156 1.609375 -1.484375 L 1.609375 -6.8125 C 1.597656 -7.050781 1.519531 -7.203125 1.375 -7.265625 C 1.332031 -7.285156 1.269531 -7.304688 1.1875 -7.328125 L 0.9375 -7.375 C 0.769531 -7.414062 0.664062 -7.46875 0.625 -7.53125 C 0.582031 -7.59375 0.5625 -7.65625 0.5625 -7.71875 C 0.5625 -7.84375 0.585938 -7.941406 0.640625 -8.015625 C 0.722656 -7.992188 0.894531 -7.984375 1.15625 -7.984375 L 3.28125 -7.984375 C 3.457031 -7.984375 3.597656 -7.953125 3.703125 -7.890625 C 3.816406 -7.835938 3.875 -7.734375 3.875 -7.578125 C 3.875 -7.460938 3.847656 -7.375 3.796875 -7.3125 C 3.660156 -7.34375 3.515625 -7.359375 3.359375 -7.359375 C 3.023438 -7.359375 2.851562 -7.085938 2.84375 -6.546875 L 2.84375 -4.234375 L 7 -4.234375 L 7 -6.8125 C 6.988281 -7.050781 6.910156 -7.203125 6.765625 -7.265625 C 6.722656 -7.285156 6.660156 -7.304688 6.578125 -7.328125 L 6.328125 -7.375 C 6.160156 -7.414062 6.054688 -7.46875 6.015625 -7.53125 C 5.972656 -7.59375 5.953125 -7.65625 5.953125 -7.71875 C 5.953125 -7.851562 5.976562 -7.953125 6.03125 -8.015625 C 6.113281 -7.992188 6.285156 -7.984375 6.546875 -7.984375 L 8.671875 -7.984375 C 8.847656 -7.984375 8.988281 -7.953125 9.09375 -7.890625 C 9.207031 -7.835938 9.265625 -7.734375 9.265625 -7.578125 C 9.265625 -7.460938 9.238281 -7.375 9.1875 -7.3125 C 9.050781 -7.34375 8.90625 -7.359375 8.75 -7.359375 C 8.414062 -7.359375 8.242188 -7.085938 8.234375 -6.546875 L 8.234375 -1.234375 C 8.234375 -1.035156 8.257812 -0.90625 8.3125 -0.84375 C 8.40625 -0.75 8.515625 -0.6875 8.640625 -0.65625 C 8.765625 -0.632812 8.867188 -0.613281 8.953125 -0.59375 C 9.035156 -0.570312 9.109375 -0.550781 9.171875 -0.53125 C 9.273438 -0.46875 9.328125 -0.375 9.328125 -0.25 C 9.328125 -0.125 9.300781 -0.0234375 9.25 0.046875 C 9.164062 0.015625 8.992188 0 8.734375 0 L 6.5625 0 C 6.382812 0 6.238281 -0.0234375 6.125 -0.078125 C 6.019531 -0.140625 5.96875 -0.25 5.96875 -0.40625 C 5.96875 -0.507812 5.992188 -0.597656 6.046875 -0.671875 C 6.179688 -0.628906 6.304688 -0.609375 6.421875 -0.609375 C 6.535156 -0.609375 6.625 -0.617188 6.6875 -0.640625 C 6.75 -0.671875 6.800781 -0.71875 6.84375 -0.78125 C 6.945312 -0.90625 7 -1.125 7 -1.4375 L 7 -3.515625 L 2.84375 -3.515625 L 2.84375 -1.234375 C 2.84375 -0.953125 2.914062 -0.773438 3.0625 -0.703125 C 3.113281 -0.679688 3.179688 -0.660156 3.265625 -0.640625 C 3.347656 -0.628906 3.429688 -0.613281 3.515625 -0.59375 C 3.597656 -0.570312 3.664062 -0.550781 3.71875 -0.53125 C 3.832031 -0.46875 3.890625 -0.375 3.890625 -0.25 C 3.890625 -0.125 3.863281 -0.0234375 3.8125 0.046875 Z M 3.8125 0.046875 "/></g></g></g><g fill="#393834" fill-opacity="1"><g transform="translate(84.15385, 97.053682)"><g/></g></g><g fill="#393834" fill-opacity="1"><g transform="translate(88.967827, 97.053682)"><g><path d="M 1.015625 0 C 0.546875 0 0.3125 -0.128906 0.3125 -0.390625 C 0.3125 -0.503906 0.34375 -0.59375 0.40625 -0.65625 C 0.5 -0.632812 0.597656 -0.625 0.703125 -0.625 C 0.804688 -0.625 0.894531 -0.625 0.96875 -0.625 C 1.039062 -0.632812 1.109375 -0.664062 1.171875 -0.71875 C 1.304688 -0.832031 1.390625 -1.09375 1.421875 -1.5 L 1.953125 -7.03125 C 1.960938 -7.113281 1.929688 -7.179688 1.859375 -7.234375 C 1.796875 -7.285156 1.710938 -7.320312 1.609375 -7.34375 C 1.515625 -7.363281 1.429688 -7.378906 1.359375 -7.390625 C 1.296875 -7.398438 1.238281 -7.421875 1.1875 -7.453125 C 1.070312 -7.503906 1.015625 -7.59375 1.015625 -7.71875 C 1.015625 -7.84375 1.039062 -7.9375 1.09375 -8 C 1.15625 -7.988281 1.210938 -7.984375 1.265625 -7.984375 L 2.8125 -7.984375 C 3.320312 -7.984375 3.640625 -7.851562 3.765625 -7.59375 L 5.703125 -3.046875 L 7.703125 -7.625 C 7.765625 -7.78125 7.859375 -7.878906 7.984375 -7.921875 C 8.117188 -7.960938 8.289062 -7.984375 8.5 -7.984375 L 9.5 -7.984375 C 9.96875 -7.984375 10.203125 -7.859375 10.203125 -7.609375 C 10.203125 -7.472656 10.175781 -7.378906 10.125 -7.328125 C 9.988281 -7.359375 9.875 -7.375 9.78125 -7.375 C 9.695312 -7.375 9.617188 -7.367188 9.546875 -7.359375 C 9.484375 -7.347656 9.429688 -7.320312 9.390625 -7.28125 C 9.296875 -7.207031 9.257812 -7.0625 9.28125 -6.84375 L 9.84375 -1.15625 C 9.875 -0.90625 10.003906 -0.75 10.234375 -0.6875 C 10.304688 -0.675781 10.378906 -0.65625 10.453125 -0.625 L 10.65625 -0.5625 C 10.78125 -0.519531 10.851562 -0.460938 10.875 -0.390625 C 10.90625 -0.328125 10.921875 -0.265625 10.921875 -0.203125 C 10.921875 -0.117188 10.894531 -0.0390625 10.84375 0.03125 C 10.769531 0.0078125 10.691406 0 10.609375 0 L 8.234375 0 C 7.804688 0 7.59375 -0.125 7.59375 -0.375 C 7.59375 -0.414062 7.601562 -0.46875 7.625 -0.53125 C 7.65625 -0.601562 7.675781 -0.644531 7.6875 -0.65625 C 7.789062 -0.632812 7.882812 -0.625 7.96875 -0.625 C 8.0625 -0.625 8.15625 -0.628906 8.25 -0.640625 C 8.34375 -0.648438 8.425781 -0.679688 8.5 -0.734375 C 8.632812 -0.859375 8.691406 -1.082031 8.671875 -1.40625 L 8.34375 -5.875 L 8.296875 -6.75 L 5.90625 -1.4375 C 5.851562 -1.414062 5.78125 -1.40625 5.6875 -1.40625 C 5.59375 -1.40625 5.492188 -1.4375 5.390625 -1.5 C 5.296875 -1.570312 5.210938 -1.65625 5.140625 -1.75 C 5.003906 -1.914062 4.878906 -2.125 4.765625 -2.375 L 2.828125 -6.921875 L 2.40625 -1.25 C 2.394531 -1.050781 2.425781 -0.914062 2.5 -0.84375 C 2.582031 -0.757812 2.691406 -0.695312 2.828125 -0.65625 C 2.972656 -0.625 3.082031 -0.597656 3.15625 -0.578125 C 3.238281 -0.554688 3.3125 -0.53125 3.375 -0.5 C 3.5 -0.4375 3.5625 -0.332031 3.5625 -0.1875 C 3.5625 -0.113281 3.535156 -0.0390625 3.484375 0.03125 C 3.421875 0.0078125 3.363281 0 3.3125 0 Z M 1.015625 0 "/></g></g></g><g fill="#393834" fill-opacity="1"><g transform="translate(101.135941, 97.053682)"><g><path d="M 5.515625 -0.609375 C 5.660156 -0.585938 5.769531 -0.578125 5.84375 -0.578125 C 5.914062 -0.578125 5.988281 -0.582031 6.0625 -0.59375 C 6.132812 -0.613281 6.195312 -0.640625 6.25 -0.671875 C 6.375 -0.753906 6.4375 -0.875 6.4375 -1.03125 C 6.4375 -1.164062 6.394531 -1.316406 6.3125 -1.484375 L 5.828125 -2.703125 L 2.53125 -2.703125 L 1.953125 -1.21875 C 1.890625 -1.082031 1.859375 -0.984375 1.859375 -0.921875 C 1.859375 -0.867188 1.867188 -0.828125 1.890625 -0.796875 C 1.910156 -0.765625 1.941406 -0.738281 1.984375 -0.71875 C 2.023438 -0.695312 2.070312 -0.679688 2.125 -0.671875 L 2.34375 -0.609375 C 2.570312 -0.566406 2.71875 -0.53125 2.78125 -0.5 C 2.914062 -0.4375 2.984375 -0.34375 2.984375 -0.21875 C 2.984375 -0.125 2.957031 -0.0390625 2.90625 0.03125 C 2.84375 0.0078125 2.78125 0 2.71875 0 L 0.609375 0 C 0.148438 0 -0.078125 -0.125 -0.078125 -0.375 C -0.078125 -0.5 -0.0507812 -0.597656 0 -0.671875 C 0.125 -0.628906 0.226562 -0.609375 0.3125 -0.609375 C 0.40625 -0.609375 0.484375 -0.625 0.546875 -0.65625 C 0.609375 -0.6875 0.664062 -0.734375 0.71875 -0.796875 C 0.8125 -0.910156 0.921875 -1.140625 1.046875 -1.484375 L 3.609375 -7.703125 C 3.679688 -7.867188 3.890625 -7.984375 4.234375 -8.046875 C 4.328125 -8.066406 4.425781 -8.078125 4.53125 -8.078125 C 4.738281 -8.078125 4.867188 -8.019531 4.921875 -7.90625 L 5.4375 -6.609375 C 6.445312 -4.234375 7.03125 -2.851562 7.1875 -2.46875 L 7.65625 -1.234375 C 7.75 -0.960938 7.828125 -0.796875 7.890625 -0.734375 C 7.953125 -0.671875 8.015625 -0.628906 8.078125 -0.609375 C 8.148438 -0.585938 8.222656 -0.566406 8.296875 -0.546875 C 8.378906 -0.535156 8.453125 -0.515625 8.515625 -0.484375 C 8.648438 -0.429688 8.71875 -0.34375 8.71875 -0.21875 C 8.71875 -0.125 8.691406 -0.046875 8.640625 0.015625 C 8.566406 0.00390625 8.503906 0 8.453125 0 L 5.984375 0 C 5.804688 0 5.664062 -0.0195312 5.5625 -0.0625 C 5.46875 -0.113281 5.421875 -0.179688 5.421875 -0.265625 C 5.421875 -0.421875 5.453125 -0.535156 5.515625 -0.609375 Z M 5.515625 -3.4375 L 4.15625 -6.8125 L 2.8125 -3.4375 Z M 5.515625 -3.4375 "/></g></g></g><g fill="#393834" fill-opacity="1"><g transform="translate(110.831857, 97.053682)"><g><path d="M 3.8125 0.046875 C 3.726562 0.015625 3.554688 0 3.296875 0 L 1.125 0 C 0.945312 0 0.800781 -0.0234375 0.6875 -0.078125 C 0.582031 -0.140625 0.53125 -0.25 0.53125 -0.40625 C 0.53125 -0.507812 0.554688 -0.597656 0.609375 -0.671875 C 0.742188 -0.628906 0.867188 -0.609375 0.984375 -0.609375 C 1.109375 -0.609375 1.203125 -0.617188 1.265625 -0.640625 C 1.335938 -0.671875 1.398438 -0.722656 1.453125 -0.796875 C 1.554688 -0.929688 1.609375 -1.160156 1.609375 -1.484375 L 1.609375 -6.8125 C 1.597656 -7.050781 1.519531 -7.203125 1.375 -7.265625 C 1.332031 -7.285156 1.269531 -7.304688 1.1875 -7.328125 L 0.9375 -7.375 C 0.769531 -7.414062 0.664062 -7.46875 0.625 -7.53125 C 0.582031 -7.59375 0.5625 -7.65625 0.5625 -7.71875 C 0.5625 -7.84375 0.585938 -7.941406 0.640625 -8.015625 C 0.722656 -7.992188 0.894531 -7.984375 1.15625 -7.984375 L 3.28125 -7.984375 C 3.457031 -7.984375 3.597656 -7.953125 3.703125 -7.890625 C 3.816406 -7.835938 3.875 -7.734375 3.875 -7.578125 C 3.875 -7.460938 3.847656 -7.375 3.796875 -7.3125 C 3.660156 -7.34375 3.515625 -7.359375 3.359375 -7.359375 C 3.023438 -7.359375 2.851562 -7.085938 2.84375 -6.546875 L 2.84375 -4.234375 L 7 -4.234375 L 7 -6.8125 C 6.988281 -7.050781 6.910156 -7.203125 6.765625 -7.265625 C 6.722656 -7.285156 6.660156 -7.304688 6.578125 -7.328125 L 6.328125 -7.375 C 6.160156 -7.414062 6.054688 -7.46875 6.015625 -7.53125 C 5.972656 -7.59375 5.953125 -7.65625 5.953125 -7.71875 C 5.953125 -7.851562 5.976562 -7.953125 6.03125 -8.015625 C 6.113281 -7.992188 6.285156 -7.984375 6.546875 -7.984375 L 8.671875 -7.984375 C 8.847656 -7.984375 8.988281 -7.953125 9.09375 -7.890625 C 9.207031 -7.835938 9.265625 -7.734375 9.265625 -7.578125 C 9.265625 -7.460938 9.238281 -7.375 9.1875 -7.3125 C 9.050781 -7.34375 8.90625 -7.359375 8.75 -7.359375 C 8.414062 -7.359375 8.242188 -7.085938 8.234375 -6.546875 L 8.234375 -1.234375 C 8.234375 -1.035156 8.257812 -0.90625 8.3125 -0.84375 C 8.40625 -0.75 8.515625 -0.6875 8.640625 -0.65625 C 8.765625 -0.632812 8.867188 -0.613281 8.953125 -0.59375 C 9.035156 -0.570312 9.109375 -0.550781 9.171875 -0.53125 C 9.273438 -0.46875 9.328125 -0.375 9.328125 -0.25 C 9.328125 -0.125 9.300781 -0.0234375 9.25 0.046875 C 9.164062 0.015625 8.992188 0 8.734375 0 L 6.5625 0 C 6.382812 0 6.238281 -0.0234375 6.125 -0.078125 C 6.019531 -0.140625 5.96875 -0.25 5.96875 -0.40625 C 5.96875 -0.507812 5.992188 -0.597656 6.046875 -0.671875 C 6.179688 -0.628906 6.304688 -0.609375 6.421875 -0.609375 C 6.535156 -0.609375 6.625 -0.617188 6.6875 -0.640625 C 6.75 -0.671875 6.800781 -0.71875 6.84375 -0.78125 C 6.945312 -0.90625 7 -1.125 7 -1.4375 L 7 -3.515625 L 2.84375 -3.515625 L 2.84375 -1.234375 C 2.84375 -0.953125 2.914062 -0.773438 3.0625 -0.703125 C 3.113281 -0.679688 3.179688 -0.660156 3.265625 -0.640625 C 3.347656 -0.628906 3.429688 -0.613281 3.515625 -0.59375 C 3.597656 -0.570312 3.664062 -0.550781 3.71875 -0.53125 C 3.832031 -0.46875 3.890625 -0.375 3.890625 -0.25 C 3.890625 -0.125 3.863281 -0.0234375 3.8125 0.046875 Z M 3.8125 0.046875 "/></g></g></g><g fill="#393834" fill-opacity="1"><g transform="translate(121.745656, 97.053682)"><g><path d="M 1.015625 0 C 0.546875 0 0.3125 -0.128906 0.3125 -0.390625 C 0.3125 -0.503906 0.34375 -0.59375 0.40625 -0.65625 C 0.5 -0.632812 0.597656 -0.625 0.703125 -0.625 C 0.804688 -0.625 0.894531 -0.625 0.96875 -0.625 C 1.039062 -0.632812 1.109375 -0.664062 1.171875 -0.71875 C 1.304688 -0.832031 1.390625 -1.09375 1.421875 -1.5 L 1.953125 -7.03125 C 1.960938 -7.113281 1.929688 -7.179688 1.859375 -7.234375 C 1.796875 -7.285156 1.710938 -7.320312 1.609375 -7.34375 C 1.515625 -7.363281 1.429688 -7.378906 1.359375 -7.390625 C 1.296875 -7.398438 1.238281 -7.421875 1.1875 -7.453125 C 1.070312 -7.503906 1.015625 -7.59375 1.015625 -7.71875 C 1.015625 -7.84375 1.039062 -7.9375 1.09375 -8 C 1.15625 -7.988281 1.210938 -7.984375 1.265625 -7.984375 L 2.8125 -7.984375 C 3.320312 -7.984375 3.640625 -7.851562 3.765625 -7.59375 L 5.703125 -3.046875 L 7.703125 -7.625 C 7.765625 -7.78125 7.859375 -7.878906 7.984375 -7.921875 C 8.117188 -7.960938 8.289062 -7.984375 8.5 -7.984375 L 9.5 -7.984375 C 9.96875 -7.984375 10.203125 -7.859375 10.203125 -7.609375 C 10.203125 -7.472656 10.175781 -7.378906 10.125 -7.328125 C 9.988281 -7.359375 9.875 -7.375 9.78125 -7.375 C 9.695312 -7.375 9.617188 -7.367188 9.546875 -7.359375 C 9.484375 -7.347656 9.429688 -7.320312 9.390625 -7.28125 C 9.296875 -7.207031 9.257812 -7.0625 9.28125 -6.84375 L 9.84375 -1.15625 C 9.875 -0.90625 10.003906 -0.75 10.234375 -0.6875 C 10.304688 -0.675781 10.378906 -0.65625 10.453125 -0.625 L 10.65625 -0.5625 C 10.78125 -0.519531 10.851562 -0.460938 10.875 -0.390625 C 10.90625 -0.328125 10.921875 -0.265625 10.921875 -0.203125 C 10.921875 -0.117188 10.894531 -0.0390625 10.84375 0.03125 C 10.769531 0.0078125 10.691406 0 10.609375 0 L 8.234375 0 C 7.804688 0 7.59375 -0.125 7.59375 -0.375 C 7.59375 -0.414062 7.601562 -0.46875 7.625 -0.53125 C 7.65625 -0.601562 7.675781 -0.644531 7.6875 -0.65625 C 7.789062 -0.632812 7.882812 -0.625 7.96875 -0.625 C 8.0625 -0.625 8.15625 -0.628906 8.25 -0.640625 C 8.34375 -0.648438 8.425781 -0.679688 8.5 -0.734375 C 8.632812 -0.859375 8.691406 -1.082031 8.671875 -1.40625 L 8.34375 -5.875 L 8.296875 -6.75 L 5.90625 -1.4375 C 5.851562 -1.414062 5.78125 -1.40625 5.6875 -1.40625 C 5.59375 -1.40625 5.492188 -1.4375 5.390625 -1.5 C 5.296875 -1.570312 5.210938 -1.65625 5.140625 -1.75 C 5.003906 -1.914062 4.878906 -2.125 4.765625 -2.375 L 2.828125 -6.921875 L 2.40625 -1.25 C 2.394531 -1.050781 2.425781 -0.914062 2.5 -0.84375 C 2.582031 -0.757812 2.691406 -0.695312 2.828125 -0.65625 C 2.972656 -0.625 3.082031 -0.597656 3.15625 -0.578125 C 3.238281 -0.554688 3.3125 -0.53125 3.375 -0.5 C 3.5 -0.4375 3.5625 -0.332031 3.5625 -0.1875 C 3.5625 -0.113281 3.535156 -0.0390625 3.484375 0.03125 C 3.421875 0.0078125 3.363281 0 3.3125 0 Z M 1.015625 0 "/></g></g></g><g fill="#393834" fill-opacity="1"><g transform="translate(133.913765, 97.053682)"><g><path d="M 7.890625 -7.375 C 7.628906 -7.375 7.492188 -7.097656 7.484375 -6.546875 L 7.484375 -3.421875 C 7.484375 -2.273438 7.195312 -1.398438 6.625 -0.796875 C 6.070312 -0.203125 5.28125 0.09375 4.25 0.09375 C 3.375 0.09375 2.660156 -0.125 2.109375 -0.5625 C 1.398438 -1.113281 1.046875 -2.03125 1.046875 -3.3125 L 1.046875 -6.890625 C 1.035156 -7.035156 1.015625 -7.140625 0.984375 -7.203125 C 0.960938 -7.265625 0.898438 -7.304688 0.796875 -7.328125 C 0.691406 -7.347656 0.597656 -7.363281 0.515625 -7.375 C 0.429688 -7.394531 0.363281 -7.421875 0.3125 -7.453125 C 0.195312 -7.503906 0.140625 -7.597656 0.140625 -7.734375 C 0.140625 -7.859375 0.164062 -7.953125 0.21875 -8.015625 C 0.300781 -7.992188 0.472656 -7.984375 0.734375 -7.984375 L 2.75 -7.984375 C 3.144531 -7.984375 3.34375 -7.847656 3.34375 -7.578125 C 3.34375 -7.460938 3.316406 -7.375 3.265625 -7.3125 C 3.140625 -7.34375 3.019531 -7.359375 2.90625 -7.359375 C 2.789062 -7.359375 2.703125 -7.34375 2.640625 -7.3125 C 2.578125 -7.289062 2.515625 -7.25 2.453125 -7.1875 C 2.328125 -7.039062 2.265625 -6.8125 2.265625 -6.5 L 2.265625 -3.671875 C 2.265625 -2.597656 2.476562 -1.828125 2.90625 -1.359375 C 3.238281 -1.003906 3.703125 -0.828125 4.296875 -0.828125 C 5.785156 -0.828125 6.53125 -1.753906 6.53125 -3.609375 L 6.53125 -6.75 C 6.53125 -7.019531 6.457031 -7.191406 6.3125 -7.265625 C 6.257812 -7.285156 6.191406 -7.304688 6.109375 -7.328125 C 6.023438 -7.347656 5.941406 -7.363281 5.859375 -7.375 C 5.773438 -7.394531 5.707031 -7.421875 5.65625 -7.453125 C 5.539062 -7.503906 5.484375 -7.597656 5.484375 -7.734375 C 5.484375 -7.859375 5.507812 -7.953125 5.5625 -8.015625 C 5.644531 -7.992188 5.816406 -7.984375 6.078125 -7.984375 L 7.8125 -7.984375 C 7.988281 -7.984375 8.128906 -7.953125 8.234375 -7.890625 C 8.347656 -7.835938 8.40625 -7.734375 8.40625 -7.578125 C 8.40625 -7.460938 8.378906 -7.375 8.328125 -7.3125 C 8.179688 -7.351562 8.035156 -7.375 7.890625 -7.375 Z M 7.890625 -7.375 "/></g></g></g><g fill="#393834" fill-opacity="1"><g transform="translate(143.47956, 97.053682)"><g><path d="M 3.84375 0.046875 L 2.359375 0 L 1.015625 0 C 0.835938 0 0.6875 -0.03125 0.5625 -0.09375 C 0.445312 -0.15625 0.390625 -0.234375 0.390625 -0.328125 C 0.390625 -0.492188 0.414062 -0.609375 0.46875 -0.671875 C 0.59375 -0.640625 0.71875 -0.625 0.84375 -0.625 C 0.96875 -0.625 1.070312 -0.628906 1.15625 -0.640625 C 1.25 -0.660156 1.332031 -0.695312 1.40625 -0.75 C 1.5625 -0.875 1.640625 -1.09375 1.640625 -1.40625 L 1.640625 -6.703125 C 1.640625 -7.023438 1.441406 -7.226562 1.046875 -7.3125 C 0.796875 -7.363281 0.628906 -7.421875 0.546875 -7.484375 C 0.472656 -7.546875 0.4375 -7.613281 0.4375 -7.6875 C 0.4375 -7.84375 0.46875 -7.945312 0.53125 -8 C 0.59375 -7.988281 0.648438 -7.984375 0.703125 -7.984375 C 0.703125 -7.984375 1.226562 -7.984375 2.28125 -7.984375 C 2.351562 -7.984375 2.457031 -7.984375 2.59375 -7.984375 C 2.59375 -7.984375 2.738281 -7.992188 3.03125 -8.015625 C 3.46875 -8.035156 3.910156 -8.046875 4.359375 -8.046875 C 4.816406 -8.046875 5.257812 -7.988281 5.6875 -7.875 C 6.125 -7.769531 6.5 -7.625 6.8125 -7.4375 C 7.125 -7.25 7.382812 -7.03125 7.59375 -6.78125 C 7.8125 -6.53125 7.984375 -6.269531 8.109375 -6 C 8.335938 -5.488281 8.453125 -4.914062 8.453125 -4.28125 C 8.453125 -3.125 8.15625 -2.164062 7.5625 -1.40625 C 7.09375 -0.800781 6.398438 -0.378906 5.484375 -0.140625 C 5.015625 -0.015625 4.46875 0.046875 3.84375 0.046875 Z M 2.875 -1.25 C 2.875 -0.988281 2.953125 -0.820312 3.109375 -0.75 C 3.253906 -0.6875 3.585938 -0.65625 4.109375 -0.65625 C 4.640625 -0.65625 5.109375 -0.738281 5.515625 -0.90625 C 5.921875 -1.082031 6.25 -1.320312 6.5 -1.625 C 6.9375 -2.15625 7.15625 -2.898438 7.15625 -3.859375 C 7.15625 -5.515625 6.566406 -6.597656 5.390625 -7.109375 C 4.972656 -7.285156 4.453125 -7.375 3.828125 -7.375 C 3.410156 -7.375 3.15625 -7.332031 3.0625 -7.25 C 2.976562 -7.175781 2.925781 -7.078125 2.90625 -6.953125 C 2.882812 -6.835938 2.875 -6.675781 2.875 -6.46875 Z M 2.875 -1.25 "/></g></g></g></svg>