<svg xmlns="http://www.w3.org/2000/svg" version="1.1" xmlns:xlink="http://www.w3.org/1999/xlink" xmlns:svgjs="http://svgjs.com/svgjs" width="500" height="500"><svg xmlns="http://www.w3.org/2000/svg" xmlns:xlink="http://www.w3.org/1999/xlink" width="500" zoomAndPan="magnify" viewBox="0 0 375 374.999991" height="500" preserveAspectRatio="xMidYMid meet" version="1.0"><defs><g></g><clipPath id="SvgjsClipPath1000"><path d="M 83.351562 226.148438 L 365.605469 226.148438 L 365.605469 248.949219 L 83.351562 248.949219 Z M 83.351562 226.148438 " clip-rule="nonzero"></path></clipPath></defs><g fill="#000000" fill-opacity="1"><g transform="translate(63.411601, 249.026535)"><g><path d="M 77.609375 -113.78125 C 72.21875 -95.90625 69.65625 -79.171875 66.6875 -58.171875 C 52.5 -58.59375 37.734375 -52.78125 23.546875 -40.15625 C -4.828125 -12.0625 6.953125 18.734375 28.515625 18.4375 C 57.03125 18.015625 66.109375 -19.296875 71.9375 -56.328125 C 81.859375 -53.625 88.671875 -42.421875 80.875 -32.625 C 78.3125 -31.78125 80.15625 -29.375 81.71875 -31.640625 C 89.953125 -42.5625 82.578125 -54.484375 72.078125 -57.3125 C 75.625 -79.875 76.609375 -94.203125 82.71875 -115.34375 C 94.34375 -119.59375 100.015625 -129.671875 96.1875 -131.515625 C 91.21875 -133.9375 83.5625 -129.8125 78.03125 -114.921875 C 54.34375 -106.125 26.671875 -95.625 29.796875 -84.28125 C 31.078125 -81.71875 32.765625 -84.421875 30.921875 -84.421875 C 28.796875 -95.765625 53.765625 -104.984375 77.609375 -113.78125 Z M 24.6875 -39.4375 C 38.453125 -52.359375 54.765625 -57.890625 66.546875 -57.171875 C 61.140625 -20.28125 54.484375 16.890625 28.9375 17.59375 C 8.234375 18.15625 -4.6875 -11.921875 24.6875 -39.4375 Z M 96.046875 -130.8125 C 98.890625 -128.53125 91.375 -119.59375 83 -116.34375 C 87.828125 -130.09375 94.484375 -131.9375 96.046875 -130.8125 Z M 96.046875 -130.8125 "></path></g></g></g><g fill="#000000" fill-opacity="1"><g transform="translate(152.646077, 249.026535)"><g><path d="M 30.21875 -23.546875 C 32.921875 -22.28125 40.71875 -25.96875 51.78125 -43.125 C 52.0625 -43.703125 51.5 -43.984375 51.078125 -43.265625 C 41.71875 -29.21875 33.90625 -23.125 30.640625 -24.265625 C 26.8125 -25.53125 32.0625 -38.734375 34.046875 -49.9375 C 34.90625 -54.34375 32.625 -57.59375 30.21875 -57.453125 C 24.125 -57.171875 20.4375 -45.828125 16.890625 -35.890625 C 17.171875 -38.3125 19.859375 -52.5 14.75 -52.921875 C 12.203125 -53.0625 5.8125 -40.859375 3.125 -33.765625 C 4.25 -42.140625 4.390625 -42.84375 4.96875 -48.09375 C 5.953125 -53.484375 1.28125 -52.203125 0.5625 -48.09375 C -1.140625 -38.171875 -1.421875 -32.765625 -1.84375 -30.359375 C -2.40625 -27.09375 1.5625 -27.53125 2.40625 -30.078125 C 3.125 -32.765625 11.640625 -51.21875 14.609375 -52.359375 C 16.3125 -52.640625 13.625 -41 13.046875 -35.046875 C 12.765625 -33.625 16.171875 -31.921875 17.3125 -35.046875 C 19.4375 -40.015625 24.265625 -56.75 29.9375 -56.609375 C 33.90625 -56.46875 20.140625 -28.234375 30.21875 -23.546875 Z M 30.21875 -23.546875 "></path></g></g></g><g clip-path="url(#95fa3991c3)"><path fill="#fffafa" d="M 83.351562 226.148438 L 365.621094 226.148438 L 365.621094 248.949219 L 83.351562 248.949219 Z M 83.351562 226.148438 " fill-opacity="1" fill-rule="nonzero"></path></g><path fill="#000000" d="M 203.050781 206.132812 C 210.546875 208.632812 218.242188 209.800781 226.144531 209.625 C 234.132812 209.433594 242.09375 208.617188 250.058594 208 C 257.199219 207.445312 264.371094 206.996094 271.539062 207.140625 C 278.035156 207.269531 284.65625 207.605469 290.441406 210.839844 L 288.894531 211.847656 C 288.40625 205.953125 298.253906 208.234375 301.328125 208.703125 C 305.078125 209.277344 308.898438 209.921875 312.691406 209.390625 C 316.269531 208.890625 318.96875 207.3125 321.816406 205.199219 C 321.949219 205.09375 322.097656 205.046875 322.265625 205.050781 C 322.4375 205.054688 322.582031 205.113281 322.707031 205.226562 C 322.835938 205.339844 322.90625 205.480469 322.929688 205.648438 C 322.953125 205.816406 322.917969 205.972656 322.828125 206.113281 C 320.664062 210.214844 315.417969 211.554688 311.128906 211.808594 C 308.136719 211.984375 305.164062 211.59375 302.210938 211.15625 C 300.609375 210.917969 290.75 208.695312 290.867188 211.738281 C 290.898438 212.558594 289.878906 212.824219 289.300781 212.496094 C 282.925781 208.722656 274.6875 208.824219 267.492188 208.769531 C 259.882812 208.714844 252.292969 209.234375 244.707031 209.738281 C 237.765625 210.199219 230.796875 210.738281 223.839844 210.652344 C 216.605469 210.582031 209.664062 209.132812 203.007812 206.300781 C 202.964844 206.28125 202.953125 206.246094 202.96875 206.199219 C 202.984375 206.152344 203.019531 206.136719 203.066406 206.148438 Z M 203.050781 206.132812 " fill-opacity="1" fill-rule="nonzero"></path><g fill="#000000" fill-opacity="1"><g transform="translate(78.180919, 239.290223)"><g><path d="M 3 0.125 C 2.351562 0.125 1.753906 -0.0078125 1.203125 -0.28125 C 0.648438 -0.550781 0.203125 -0.9375 -0.140625 -1.4375 L 0.75 -2.484375 C 1.34375 -1.628906 2.09375 -1.203125 3 -1.203125 C 3.601562 -1.203125 4.0625 -1.382812 4.375 -1.75 C 4.6875 -2.125 4.84375 -2.671875 4.84375 -3.390625 L 4.84375 -9.4375 L 0.953125 -9.4375 L 0.953125 -10.78125 L 6.375 -10.78125 L 6.375 -3.46875 C 6.375 -2.269531 6.085938 -1.367188 5.515625 -0.765625 C 4.941406 -0.171875 4.101562 0.125 3 0.125 Z M 3 0.125 "></path></g></g></g><g fill="#000000" fill-opacity="1"><g transform="translate(88.631351, 239.290223)"><g><path d="M 8.484375 -2.6875 L 2.75 -2.6875 L 1.5625 0 L -0.015625 0 L 4.859375 -10.78125 L 6.390625 -10.78125 L 11.28125 0 L 9.671875 0 Z M 7.9375 -3.921875 L 5.625 -9.203125 L 3.296875 -3.921875 Z M 7.9375 -3.921875 "></path></g></g></g><g fill="#000000" fill-opacity="1"><g transform="translate(102.451469, 239.290223)"><g><path d="M 1.609375 -10.78125 L 3.15625 -10.78125 L 3.15625 -1.34375 L 8.984375 -1.34375 L 8.984375 0 L 1.609375 0 Z M 1.609375 -10.78125 "></path></g></g></g><g fill="#000000" fill-opacity="1"><g transform="translate(114.14822, 239.290223)"><g><path d="M 1.609375 -10.78125 L 3.15625 -10.78125 L 3.15625 0 L 1.609375 0 Z M 1.609375 -10.78125 "></path></g></g></g><g fill="#000000" fill-opacity="1"><g transform="translate(121.475136, 239.290223)"><g><path d="M 4.75 0.125 C 3.945312 0.125 3.164062 0 2.40625 -0.25 C 1.65625 -0.5 1.0625 -0.828125 0.625 -1.234375 L 1.203125 -2.4375 C 1.609375 -2.0625 2.128906 -1.757812 2.765625 -1.53125 C 3.410156 -1.300781 4.070312 -1.1875 4.75 -1.1875 C 5.644531 -1.1875 6.3125 -1.335938 6.75 -1.640625 C 7.195312 -1.941406 7.421875 -2.34375 7.421875 -2.84375 C 7.421875 -3.21875 7.296875 -3.519531 7.046875 -3.75 C 6.804688 -3.976562 6.507812 -4.15625 6.15625 -4.28125 C 5.8125 -4.40625 5.3125 -4.539062 4.65625 -4.6875 C 3.851562 -4.882812 3.203125 -5.082031 2.703125 -5.28125 C 2.203125 -5.476562 1.773438 -5.773438 1.421875 -6.171875 C 1.066406 -6.578125 0.890625 -7.125 0.890625 -7.8125 C 0.890625 -8.394531 1.039062 -8.914062 1.34375 -9.375 C 1.644531 -9.832031 2.101562 -10.195312 2.71875 -10.46875 C 3.332031 -10.75 4.097656 -10.890625 5.015625 -10.890625 C 5.648438 -10.890625 6.273438 -10.804688 6.890625 -10.640625 C 7.503906 -10.484375 8.035156 -10.25 8.484375 -9.9375 L 7.96875 -8.71875 C 7.519531 -9 7.035156 -9.210938 6.515625 -9.359375 C 6.003906 -9.515625 5.503906 -9.59375 5.015625 -9.59375 C 4.140625 -9.59375 3.484375 -9.429688 3.046875 -9.109375 C 2.617188 -8.796875 2.40625 -8.382812 2.40625 -7.875 C 2.40625 -7.507812 2.523438 -7.210938 2.765625 -6.984375 C 3.015625 -6.753906 3.320312 -6.570312 3.6875 -6.4375 C 4.050781 -6.3125 4.546875 -6.175781 5.171875 -6.03125 C 5.984375 -5.832031 6.632812 -5.632812 7.125 -5.4375 C 7.613281 -5.25 8.035156 -4.953125 8.390625 -4.546875 C 8.742188 -4.148438 8.921875 -3.613281 8.921875 -2.9375 C 8.921875 -2.375 8.765625 -1.859375 8.453125 -1.390625 C 8.148438 -0.921875 7.6875 -0.550781 7.0625 -0.28125 C 6.4375 -0.0078125 5.664062 0.125 4.75 0.125 Z M 4.75 0.125 "></path></g></g></g><g fill="#000000" fill-opacity="1"><g transform="translate(133.587331, 239.290223)"><g><path d="M 10.875 -10.78125 L 10.875 0 L 9.34375 0 L 9.34375 -4.796875 L 3.15625 -4.796875 L 3.15625 0 L 1.609375 0 L 1.609375 -10.78125 L 3.15625 -10.78125 L 3.15625 -6.140625 L 9.34375 -6.140625 L 9.34375 -10.78125 Z M 10.875 -10.78125 "></path></g></g></g><g fill="#000000" fill-opacity="1"><g transform="translate(148.638399, 239.290223)"><g></g></g></g><g fill="#000000" fill-opacity="1"><g transform="translate(155.334457, 239.290223)"><g><path d="M 11.609375 0 L 11.59375 -7.84375 L 7.703125 -1.3125 L 6.984375 -1.3125 L 3.09375 -7.796875 L 3.09375 0 L 1.609375 0 L 1.609375 -10.78125 L 2.875 -10.78125 L 7.375 -3.203125 L 11.796875 -10.78125 L 13.0625 -10.78125 L 13.078125 0 Z M 11.609375 0 "></path></g></g></g><g fill="#000000" fill-opacity="1"><g transform="translate(172.585823, 239.290223)"><g><path d="M 8.484375 -2.6875 L 2.75 -2.6875 L 1.5625 0 L -0.015625 0 L 4.859375 -10.78125 L 6.390625 -10.78125 L 11.28125 0 L 9.671875 0 Z M 7.9375 -3.921875 L 5.625 -9.203125 L 3.296875 -3.921875 Z M 7.9375 -3.921875 "></path></g></g></g><g fill="#000000" fill-opacity="1"><g transform="translate(186.405947, 239.290223)"><g><path d="M 10.875 -10.78125 L 10.875 0 L 9.34375 0 L 9.34375 -4.796875 L 3.15625 -4.796875 L 3.15625 0 L 1.609375 0 L 1.609375 -10.78125 L 3.15625 -10.78125 L 3.15625 -6.140625 L 9.34375 -6.140625 L 9.34375 -10.78125 Z M 10.875 -10.78125 "></path></g></g></g><g fill="#000000" fill-opacity="1"><g transform="translate(201.457021, 239.290223)"><g><path d="M 11.609375 0 L 11.59375 -7.84375 L 7.703125 -1.3125 L 6.984375 -1.3125 L 3.09375 -7.796875 L 3.09375 0 L 1.609375 0 L 1.609375 -10.78125 L 2.875 -10.78125 L 7.375 -3.203125 L 11.796875 -10.78125 L 13.0625 -10.78125 L 13.078125 0 Z M 11.609375 0 "></path></g></g></g><g fill="#000000" fill-opacity="1"><g transform="translate(218.708393, 239.290223)"><g><path d="M 6.078125 0.125 C 4.640625 0.125 3.519531 -0.285156 2.71875 -1.109375 C 1.925781 -1.929688 1.53125 -3.109375 1.53125 -4.640625 L 1.53125 -10.78125 L 3.0625 -10.78125 L 3.0625 -4.703125 C 3.0625 -2.398438 4.070312 -1.25 6.09375 -1.25 C 7.082031 -1.25 7.835938 -1.53125 8.359375 -2.09375 C 8.878906 -2.664062 9.140625 -3.535156 9.140625 -4.703125 L 9.140625 -10.78125 L 10.640625 -10.78125 L 10.640625 -4.640625 C 10.640625 -3.097656 10.238281 -1.914062 9.4375 -1.09375 C 8.632812 -0.28125 7.515625 0.125 6.078125 0.125 Z M 6.078125 0.125 "></path></g></g></g><g fill="#000000" fill-opacity="1"><g transform="translate(233.436343, 239.290223)"><g><path d="M 1.609375 -10.78125 L 6.15625 -10.78125 C 7.289062 -10.78125 8.300781 -10.550781 9.1875 -10.09375 C 10.070312 -9.644531 10.753906 -9.007812 11.234375 -8.1875 C 11.722656 -7.375 11.96875 -6.441406 11.96875 -5.390625 C 11.96875 -4.328125 11.722656 -3.390625 11.234375 -2.578125 C 10.753906 -1.765625 10.070312 -1.128906 9.1875 -0.671875 C 8.300781 -0.222656 7.289062 0 6.15625 0 L 1.609375 0 Z M 6.0625 -1.34375 C 6.9375 -1.34375 7.703125 -1.507812 8.359375 -1.84375 C 9.023438 -2.1875 9.535156 -2.660156 9.890625 -3.265625 C 10.253906 -3.878906 10.4375 -4.585938 10.4375 -5.390625 C 10.4375 -6.191406 10.253906 -6.894531 9.890625 -7.5 C 9.535156 -8.113281 9.023438 -8.585938 8.359375 -8.921875 C 7.703125 -9.265625 6.9375 -9.4375 6.0625 -9.4375 L 3.15625 -9.4375 L 3.15625 -1.34375 Z M 6.0625 -1.34375 "></path></g></g></g><g fill="#000000" fill-opacity="1"><g transform="translate(248.702829, 239.290223)"><g></g></g></g><g fill="#000000" fill-opacity="1"><g transform="translate(255.398893, 239.290223)"><g><path d="M 4.75 0.125 C 3.945312 0.125 3.164062 0 2.40625 -0.25 C 1.65625 -0.5 1.0625 -0.828125 0.625 -1.234375 L 1.203125 -2.4375 C 1.609375 -2.0625 2.128906 -1.757812 2.765625 -1.53125 C 3.410156 -1.300781 4.070312 -1.1875 4.75 -1.1875 C 5.644531 -1.1875 6.3125 -1.335938 6.75 -1.640625 C 7.195312 -1.941406 7.421875 -2.34375 7.421875 -2.84375 C 7.421875 -3.21875 7.296875 -3.519531 7.046875 -3.75 C 6.804688 -3.976562 6.507812 -4.15625 6.15625 -4.28125 C 5.8125 -4.40625 5.3125 -4.539062 4.65625 -4.6875 C 3.851562 -4.882812 3.203125 -5.082031 2.703125 -5.28125 C 2.203125 -5.476562 1.773438 -5.773438 1.421875 -6.171875 C 1.066406 -6.578125 0.890625 -7.125 0.890625 -7.8125 C 0.890625 -8.394531 1.039062 -8.914062 1.34375 -9.375 C 1.644531 -9.832031 2.101562 -10.195312 2.71875 -10.46875 C 3.332031 -10.75 4.097656 -10.890625 5.015625 -10.890625 C 5.648438 -10.890625 6.273438 -10.804688 6.890625 -10.640625 C 7.503906 -10.484375 8.035156 -10.25 8.484375 -9.9375 L 7.96875 -8.71875 C 7.519531 -9 7.035156 -9.210938 6.515625 -9.359375 C 6.003906 -9.515625 5.503906 -9.59375 5.015625 -9.59375 C 4.140625 -9.59375 3.484375 -9.429688 3.046875 -9.109375 C 2.617188 -8.796875 2.40625 -8.382812 2.40625 -7.875 C 2.40625 -7.507812 2.523438 -7.210938 2.765625 -6.984375 C 3.015625 -6.753906 3.320312 -6.570312 3.6875 -6.4375 C 4.050781 -6.3125 4.546875 -6.175781 5.171875 -6.03125 C 5.984375 -5.832031 6.632812 -5.632812 7.125 -5.4375 C 7.613281 -5.25 8.035156 -4.953125 8.390625 -4.546875 C 8.742188 -4.148438 8.921875 -3.613281 8.921875 -2.9375 C 8.921875 -2.375 8.765625 -1.859375 8.453125 -1.390625 C 8.148438 -0.921875 7.6875 -0.550781 7.0625 -0.28125 C 6.4375 -0.0078125 5.664062 0.125 4.75 0.125 Z M 4.75 0.125 "></path></g></g></g><g fill="#000000" fill-opacity="1"><g transform="translate(267.51109, 239.290223)"><g><path d="M 6.078125 0.125 C 4.640625 0.125 3.519531 -0.285156 2.71875 -1.109375 C 1.925781 -1.929688 1.53125 -3.109375 1.53125 -4.640625 L 1.53125 -10.78125 L 3.0625 -10.78125 L 3.0625 -4.703125 C 3.0625 -2.398438 4.070312 -1.25 6.09375 -1.25 C 7.082031 -1.25 7.835938 -1.53125 8.359375 -2.09375 C 8.878906 -2.664062 9.140625 -3.535156 9.140625 -4.703125 L 9.140625 -10.78125 L 10.640625 -10.78125 L 10.640625 -4.640625 C 10.640625 -3.097656 10.238281 -1.914062 9.4375 -1.09375 C 8.632812 -0.28125 7.515625 0.125 6.078125 0.125 Z M 6.078125 0.125 "></path></g></g></g><g fill="#000000" fill-opacity="1"><g transform="translate(282.23904, 239.290223)"><g><path d="M 3 0.125 C 2.351562 0.125 1.753906 -0.0078125 1.203125 -0.28125 C 0.648438 -0.550781 0.203125 -0.9375 -0.140625 -1.4375 L 0.75 -2.484375 C 1.34375 -1.628906 2.09375 -1.203125 3 -1.203125 C 3.601562 -1.203125 4.0625 -1.382812 4.375 -1.75 C 4.6875 -2.125 4.84375 -2.671875 4.84375 -3.390625 L 4.84375 -9.4375 L 0.953125 -9.4375 L 0.953125 -10.78125 L 6.375 -10.78125 L 6.375 -3.46875 C 6.375 -2.269531 6.085938 -1.367188 5.515625 -0.765625 C 4.941406 -0.171875 4.101562 0.125 3 0.125 Z M 3 0.125 "></path></g></g></g><g fill="#000000" fill-opacity="1"><g transform="translate(292.689464, 239.290223)"><g><path d="M 6.484375 0.125 C 5.390625 0.125 4.40625 -0.113281 3.53125 -0.59375 C 2.664062 -1.070312 1.984375 -1.726562 1.484375 -2.5625 C 0.984375 -3.40625 0.734375 -4.347656 0.734375 -5.390625 C 0.734375 -6.421875 0.984375 -7.359375 1.484375 -8.203125 C 1.984375 -9.046875 2.664062 -9.703125 3.53125 -10.171875 C 4.40625 -10.648438 5.390625 -10.890625 6.484375 -10.890625 C 7.554688 -10.890625 8.53125 -10.648438 9.40625 -10.171875 C 10.28125 -9.703125 10.960938 -9.046875 11.453125 -8.203125 C 11.941406 -7.367188 12.1875 -6.429688 12.1875 -5.390625 C 12.1875 -4.335938 11.941406 -3.394531 11.453125 -2.5625 C 10.960938 -1.726562 10.28125 -1.070312 9.40625 -0.59375 C 8.53125 -0.113281 7.554688 0.125 6.484375 0.125 Z M 6.484375 -1.25 C 7.273438 -1.25 7.984375 -1.425781 8.609375 -1.78125 C 9.242188 -2.144531 9.742188 -2.640625 10.109375 -3.265625 C 10.472656 -3.898438 10.65625 -4.609375 10.65625 -5.390625 C 10.65625 -6.171875 10.472656 -6.875 10.109375 -7.5 C 9.742188 -8.132812 9.242188 -8.628906 8.609375 -8.984375 C 7.984375 -9.347656 7.273438 -9.53125 6.484375 -9.53125 C 5.691406 -9.53125 4.972656 -9.347656 4.328125 -8.984375 C 3.691406 -8.628906 3.191406 -8.132812 2.828125 -7.5 C 2.460938 -6.875 2.28125 -6.171875 2.28125 -5.390625 C 2.28125 -4.609375 2.460938 -3.898438 2.828125 -3.265625 C 3.191406 -2.640625 3.691406 -2.144531 4.328125 -1.78125 C 4.972656 -1.425781 5.691406 -1.25 6.484375 -1.25 Z M 6.484375 -1.25 "></path></g></g></g><g fill="#000000" fill-opacity="1"><g transform="translate(308.17135, 239.290223)"><g><path d="M 10.875 -10.78125 L 10.875 0 L 9.625 0 L 3.15625 -8.03125 L 3.15625 0 L 1.609375 0 L 1.609375 -10.78125 L 2.875 -10.78125 L 9.34375 -2.734375 L 9.34375 -10.78125 Z M 10.875 -10.78125 "></path></g></g></g><g fill="#000000" fill-opacity="1"><g transform="translate(140.38912, 258.402523)"><g><path d="M 4.375 0.0625 C 3.644531 0.0625 2.988281 -0.0976562 2.40625 -0.421875 C 1.820312 -0.742188 1.363281 -1.1875 1.03125 -1.75 C 0.707031 -2.320312 0.546875 -2.957031 0.546875 -3.65625 C 0.546875 -4.363281 0.707031 -5 1.03125 -5.5625 C 1.363281 -6.132812 1.820312 -6.582031 2.40625 -6.90625 C 3 -7.226562 3.660156 -7.390625 4.390625 -7.390625 C 4.929688 -7.390625 5.429688 -7.296875 5.890625 -7.109375 C 6.347656 -6.929688 6.738281 -6.671875 7.0625 -6.328125 L 6.578125 -5.828125 C 6.003906 -6.410156 5.28125 -6.703125 4.40625 -6.703125 C 3.820312 -6.703125 3.289062 -6.566406 2.8125 -6.296875 C 2.34375 -6.035156 1.972656 -5.671875 1.703125 -5.203125 C 1.441406 -4.742188 1.3125 -4.226562 1.3125 -3.65625 C 1.3125 -3.09375 1.441406 -2.578125 1.703125 -2.109375 C 1.972656 -1.648438 2.34375 -1.285156 2.8125 -1.015625 C 3.289062 -0.753906 3.820312 -0.625 4.40625 -0.625 C 5.28125 -0.625 6.003906 -0.914062 6.578125 -1.5 L 7.0625 -1.015625 C 6.738281 -0.660156 6.34375 -0.390625 5.875 -0.203125 C 5.414062 -0.0234375 4.914062 0.0625 4.375 0.0625 Z M 4.375 0.0625 "></path></g></g></g><g fill="#000000" fill-opacity="1"><g transform="translate(150.971683, 258.402523)"><g><path d="M 1.1875 -7.328125 L 1.96875 -7.328125 L 1.96875 0 L 1.1875 0 Z M 1.1875 -7.328125 "></path></g></g></g><g fill="#000000" fill-opacity="1"><g transform="translate(157.190374, 258.402523)"><g><path d="M 7.28125 -7.328125 L 4.046875 0 L 3.28125 0 L 0.03125 -7.328125 L 0.875 -7.328125 L 3.671875 -0.96875 L 6.5 -7.328125 Z M 7.28125 -7.328125 "></path></g></g></g><g fill="#000000" fill-opacity="1"><g transform="translate(167.553166, 258.402523)"><g><path d="M 1.1875 -7.328125 L 1.96875 -7.328125 L 1.96875 0 L 1.1875 0 Z M 1.1875 -7.328125 "></path></g></g></g><g fill="#000000" fill-opacity="1"><g transform="translate(173.771857, 258.402523)"><g><path d="M 1.1875 -7.328125 L 1.96875 -7.328125 L 1.96875 -0.671875 L 6.078125 -0.671875 L 6.078125 0 L 1.1875 0 Z M 1.1875 -7.328125 "></path></g></g></g><g fill="#000000" fill-opacity="1"><g transform="translate(182.99398, 258.402523)"><g></g></g></g><g fill="#000000" fill-opacity="1"><g transform="translate(188.794083, 258.402523)"><g><path d="M 6.375 -0.671875 L 6.375 0 L 1.1875 0 L 1.1875 -7.328125 L 6.21875 -7.328125 L 6.21875 -6.65625 L 1.96875 -6.65625 L 1.96875 -4.046875 L 5.75 -4.046875 L 5.75 -3.390625 L 1.96875 -3.390625 L 1.96875 -0.671875 Z M 6.375 -0.671875 "></path></g></g></g><g fill="#000000" fill-opacity="1"><g transform="translate(198.853399, 258.402523)"><g><path d="M 7.3125 -7.328125 L 7.3125 0 L 6.671875 0 L 1.96875 -5.953125 L 1.96875 0 L 1.1875 0 L 1.1875 -7.328125 L 1.828125 -7.328125 L 6.546875 -1.375 L 6.546875 -7.328125 Z M 7.3125 -7.328125 "></path></g></g></g><g fill="#000000" fill-opacity="1"><g transform="translate(210.419662, 258.402523)"><g><path d="M 6.359375 -3.65625 L 7.09375 -3.65625 L 7.09375 -0.875 C 6.75 -0.570312 6.34375 -0.335938 5.875 -0.171875 C 5.414062 -0.015625 4.925781 0.0625 4.40625 0.0625 C 3.675781 0.0625 3.015625 -0.0976562 2.421875 -0.421875 C 1.835938 -0.742188 1.378906 -1.1875 1.046875 -1.75 C 0.710938 -2.320312 0.546875 -2.957031 0.546875 -3.65625 C 0.546875 -4.363281 0.710938 -5 1.046875 -5.5625 C 1.378906 -6.132812 1.835938 -6.582031 2.421875 -6.90625 C 3.015625 -7.226562 3.679688 -7.390625 4.421875 -7.390625 C 4.972656 -7.390625 5.484375 -7.300781 5.953125 -7.125 C 6.421875 -6.945312 6.816406 -6.679688 7.140625 -6.328125 L 6.65625 -5.84375 C 6.082031 -6.414062 5.347656 -6.703125 4.453125 -6.703125 C 3.859375 -6.703125 3.320312 -6.570312 2.84375 -6.3125 C 2.363281 -6.050781 1.988281 -5.6875 1.71875 -5.21875 C 1.445312 -4.75 1.3125 -4.226562 1.3125 -3.65625 C 1.3125 -3.09375 1.445312 -2.578125 1.71875 -2.109375 C 1.988281 -1.648438 2.359375 -1.285156 2.828125 -1.015625 C 3.304688 -0.753906 3.84375 -0.625 4.4375 -0.625 C 5.1875 -0.625 5.828125 -0.8125 6.359375 -1.1875 Z M 6.359375 -3.65625 "></path></g></g></g><g fill="#000000" fill-opacity="1"><g transform="translate(221.567322, 258.402523)"><g><path d="M 1.1875 -7.328125 L 1.96875 -7.328125 L 1.96875 0 L 1.1875 0 Z M 1.1875 -7.328125 "></path></g></g></g><g fill="#000000" fill-opacity="1"><g transform="translate(227.786012, 258.402523)"><g><path d="M 7.3125 -7.328125 L 7.3125 0 L 6.671875 0 L 1.96875 -5.953125 L 1.96875 0 L 1.1875 0 L 1.1875 -7.328125 L 1.828125 -7.328125 L 6.546875 -1.375 L 6.546875 -7.328125 Z M 7.3125 -7.328125 "></path></g></g></g><g fill="#000000" fill-opacity="1"><g transform="translate(239.352275, 258.402523)"><g><path d="M 6.375 -0.671875 L 6.375 0 L 1.1875 0 L 1.1875 -7.328125 L 6.21875 -7.328125 L 6.21875 -6.65625 L 1.96875 -6.65625 L 1.96875 -4.046875 L 5.75 -4.046875 L 5.75 -3.390625 L 1.96875 -3.390625 L 1.96875 -0.671875 Z M 6.375 -0.671875 "></path></g></g></g><g fill="#000000" fill-opacity="1"><g transform="translate(249.411597, 258.402523)"><g><path d="M 6.375 -0.671875 L 6.375 0 L 1.1875 0 L 1.1875 -7.328125 L 6.21875 -7.328125 L 6.21875 -6.65625 L 1.96875 -6.65625 L 1.96875 -4.046875 L 5.75 -4.046875 L 5.75 -3.390625 L 1.96875 -3.390625 L 1.96875 -0.671875 Z M 6.375 -0.671875 "></path></g></g></g><g fill="#000000" fill-opacity="1"><g transform="translate(259.470918, 258.402523)"><g><path d="M 6.203125 0 L 4.515625 -2.359375 C 4.328125 -2.335938 4.132812 -2.328125 3.9375 -2.328125 L 1.96875 -2.328125 L 1.96875 0 L 1.1875 0 L 1.1875 -7.328125 L 3.9375 -7.328125 C 4.875 -7.328125 5.609375 -7.101562 6.140625 -6.65625 C 6.671875 -6.207031 6.9375 -5.59375 6.9375 -4.8125 C 6.9375 -4.238281 6.789062 -3.753906 6.5 -3.359375 C 6.207031 -2.972656 5.789062 -2.691406 5.25 -2.515625 L 7.046875 0 Z M 3.921875 -2.984375 C 4.640625 -2.984375 5.191406 -3.144531 5.578125 -3.46875 C 5.960938 -3.789062 6.15625 -4.238281 6.15625 -4.8125 C 6.15625 -5.40625 5.960938 -5.859375 5.578125 -6.171875 C 5.191406 -6.492188 4.640625 -6.65625 3.921875 -6.65625 L 1.96875 -6.65625 L 1.96875 -2.984375 Z M 3.921875 -2.984375 "></path></g></g></g></svg><style>@media (prefers-color-scheme: light) { :root { filter: none; } }
</style></svg>